<svg width="60" height="60" viewBox="0 0 60 60" fill="none" xmlns="http://www.w3.org/2000/svg">
<path fill-rule="evenodd" clip-rule="evenodd" d="M27 2.4179e-07C12.0902 2.4179e-07 -6.07017e-07 12.1647 -6.07017e-07 27.1717C-6.07017e-07 39.1763 7.73584 49.3611 18.4669 52.9539C19.8161 53.2008 20.3101 52.3635 20.3101 51.6446C20.3101 50.999 20.2869 49.2893 20.2736 47.0225C12.7632 48.6638 11.1786 43.3796 11.1786 43.3796C9.95033 40.2421 8.18006 39.4048 8.18006 39.4048C5.72853 37.7201 8.36571 37.7535 8.36571 37.7535C11.0758 37.9453 12.5013 40.5557 12.5013 40.5557C14.9098 44.7057 18.8199 43.5081 20.3598 42.8142C20.6051 41.0578 21.303 39.8601 22.0737 39.1813C16.0783 38.4941 9.77463 36.1639 9.77463 25.7522C9.77463 22.7865 10.8272 20.3613 12.5544 18.4614C12.2776 17.7742 11.3493 15.012 12.8196 11.2707C12.8196 11.2707 15.0871 10.5401 20.2438 14.0562C22.397 13.4507 24.7076 13.1488 27.0033 13.1388C29.2974 13.1488 31.6047 13.4507 33.7628 14.0529C38.9179 10.5367 41.1821 11.2673 41.1821 11.2673C42.6557 15.0086 41.7274 17.7708 41.4506 18.4581C43.1794 20.3579 44.2254 22.7832 44.2254 25.7489C44.2254 36.1872 37.9117 38.484 31.8964 39.1563C32.8661 39.9969 33.728 41.6549 33.728 44.1903C33.728 47.8232 33.6949 50.7522 33.6949 51.6446C33.6949 52.3718 34.1806 53.2141 35.5514 52.9506C46.2725 49.3511 54 39.1729 54 27.1717C54.0017 12.1647 41.9131 2.4179e-07 27 2.4179e-07Z" transform="translate(3 3)" fill="#F0F0F0"/>
</svg>
