<svg width="205px" height="38px" viewBox="0 0 205 38" version="1.1" xmlns="http://www.w3.org/2000/svg" xmlns:xlink="http://www.w3.org/1999/xlink" class="logo__svg logo__svg--default" aria-hidden="true">
            <g class="logo__text" fill="#28292B">
              <path d="M10.9206227,15.6434717 C10.9206227,13.944 10.0015906,13.0589434 8.16736697,13.0589434 C7.42748739,13.0589434 6.6137328,13.2717736 6.04803555,13.553434 L6.04803555,27.9160755 L0.224561927,27.9160755 L0.224561927,0.147622642 L6.04803555,0.147622642 L6.04803555,9.31018868 C7.10781422,8.85079245 8.41452064,8.53154717 9.72122706,8.53154717 C14.2739151,8.53154717 16.7452259,10.8307925 16.7452259,15.0418868 L16.7452259,27.9160755 L10.9206227,27.9160755 L10.9206227,15.6434717 Z"></path>
              <path d="M28.8507856,28.3399245 C23.1680585,28.3399245 19.9209472,24.0624906 19.9209472,18.3647547 C19.9209472,12.6701887 23.1680585,8.42513208 28.8507856,8.42513208 C34.5346422,8.42513208 37.7817534,12.6701887 37.7817534,18.3647547 C37.7817534,24.0624906 34.5346422,28.3399245 28.8507856,28.3399245 M28.8507856,12.9525283 C26.8041995,12.9525283 25.7455505,14.7923774 25.7455505,18.2943396 C25.7455505,21.7981132 26.8041995,23.6726038 28.8507856,23.6726038 C30.8985011,23.6726038 31.9580539,21.7981132 31.9580539,18.2943396 C31.9580539,14.7923774 30.8985011,12.9525283 28.8507856,12.9525283"></path>
              <path d="M49.146078,28.0931321 C48.3000172,28.0931321 47.3118544,27.9518491 46.782078,27.7747925 L46.782078,35.5224906 L40.9583784,35.5224906 L40.9583784,9.80535849 C42.4763177,9.02603774 45.2998337,8.42513208 48.371633,8.42513208 C54.6891881,8.42513208 58.1129667,11.9628679 58.1129667,18.3301132 C58.1129667,24.2377358 55.0425229,28.0931321 49.146078,28.0931321 M48.4764587,12.8832453 C47.8059358,12.8832453 47.1351869,13.0247547 46.782078,13.1664906 L46.782078,23.4244528 C47.099492,23.5655094 47.8416307,23.706566 48.5123796,23.706566 C50.9825608,23.706566 52.2881376,21.5139623 52.2881376,18.3301132 C52.2881376,14.7584151 50.9123005,12.8832453 48.4764587,12.8832453"></path>
              <path d="M69.4784209,28.0931321 C68.6310046,28.0931321 67.6430677,27.9518491 67.1144209,27.7747925 L67.1144209,35.5224906 L61.2907213,35.5224906 L61.2907213,9.80535849 C62.8086606,9.02603774 65.631047,8.42513208 68.7039759,8.42513208 C75.0190459,8.42513208 78.44418,11.9628679 78.44418,18.3301132 C78.44418,24.2377358 75.3723807,28.0931321 69.4784209,28.0931321 M68.8090275,12.8832453 C68.1357936,12.8832453 67.4675298,13.0247547 67.1144209,13.1664906 L67.1144209,23.4244528 C67.4316089,23.5655094 68.1717144,23.706566 68.8422374,23.706566 C71.3137741,23.706566 72.6193509,21.5139623 72.6193509,18.3301132 C72.6193509,14.7584151 71.2432878,12.8832453 68.8090275,12.8832453"></path>
              <path d="M84.5516319,6.23275472 C82.7854094,6.23275472 81.339086,4.88739623 81.339086,3.22618868 C81.339086,1.56316981 82.7854094,0.182943396 84.5516319,0.182943396 C86.3153693,0.182943396 87.7976135,1.56316981 87.7976135,3.22618868 C87.7976135,4.88739623 86.3153693,6.23275472 84.5516319,6.23275472"></path>
              <path d="M81.6565,8.85079245 L87.4799736,8.85079245 L87.4799736,27.9158491 L81.6565,27.9158491 L81.6565,8.85079245 Z"></path>
              <path d="M102.023634,27.9160755 L102.023634,15.5363774 C102.023634,13.944 101.070037,12.9889811 99.3408647,12.9889811 C98.5293693,12.9889811 97.6473876,13.1664906 97.151047,13.3788679 L97.151047,27.9160755 L91.3273475,27.9160755 L91.3273475,9.80535849 C93.4469048,8.9925283 95.9530069,8.42513208 99.2703784,8.42513208 C105.23618,8.42513208 107.847108,10.7261887 107.847108,14.8636981 L107.847108,27.9160755 L102.023634,27.9160755"></path>
              <path d="M119.495411,35.8766038 C116.140989,35.8766038 113.636016,35.2390189 111.800663,34.3539623 L113.387959,29.826566 C114.69331,30.4987925 116.670765,30.9584151 118.860583,30.9584151 C121.328279,30.9584151 122.425108,29.7559245 122.425108,27.4931321 L122.425108,26.5723019 C121.543126,26.9610566 120.237549,27.1738868 119.142076,27.1738868 C114.270844,27.1738868 111.023733,23.742566 111.023733,18.0833208 C111.023733,11.7516226 114.801976,8.42513208 121.118401,8.42513208 C124.013533,8.42513208 126.55533,9.02603774 128.178321,9.80535849 L128.178321,27.4931321 C128.178321,33.0468679 124.719977,35.8766038 119.495411,35.8766038 M122.425108,13.094717 C122.001513,12.9525283 121.328279,12.8476981 120.553834,12.8476981 C118.296015,12.8476981 116.847432,14.4749434 116.847432,17.8702642 C116.847432,21.2311698 118.223269,22.8575094 120.483573,22.8575094 C121.155226,22.8575094 122.001513,22.6464906 122.425108,22.4336604 L122.425108,13.094717"></path>
              <path d="M148.897209,19.1429434 L137.039029,20.7011321 C137.497189,22.7877736 139.297977,23.8125283 141.663107,23.8125283 C143.568946,23.8125283 145.615532,23.3544906 147.02842,22.6464906 L148.650281,26.9610566 C146.922239,27.7747925 144.064157,28.3399245 141.203817,28.3399245 C134.603187,28.3399245 131.354946,24.026717 131.354946,18.3647547 C131.354946,12.5298113 134.743933,8.42513208 140.462581,8.42513208 C146.003432,8.42513208 148.969954,12.1396981 148.969954,17.3750943 C148.969954,17.9762264 148.969954,18.5420377 148.897209,19.1429434 M140.321835,12.5298113 C138.273893,12.5298113 136.686823,13.944 136.651128,17.0911698 L143.356584,16.242566 C143.356584,13.8375849 142.191753,12.5298113 140.321835,12.5298113"></path>
              <path d="M162.100501,13.3788679 C161.53503,13.1664906 160.723308,13.0247547 159.946378,13.0247547 C159.205369,13.0247547 158.498925,13.1311698 157.971408,13.3428679 L157.971408,27.9160755 L152.145675,27.9160755 L152.145675,9.80535849 C154.263877,8.9925283 157.052602,8.42513208 160.405894,8.42513208 C161.53503,8.42513208 162.488401,8.53086792 163.157795,8.63841509 L162.100501,13.3788679"></path>
            </g>
            <path d="M171.773878,28.670564 L204.900123,28.670564 L188.336416,0.150914839 L171.773878,28.670564 Z" class="logo__triangle" fill="#1CDE56"></path>
          </svg>